<?xml version="1.0" standalone="no"?>
<!DOCTYPE svg PUBLIC "-//W3C//DTD SVG 20010904//EN"
 "http://www.w3.org/TR/2001/REC-SVG-20010904/DTD/svg10.dtd">
<svg version="1.0" xmlns="http://www.w3.org/2000/svg"
 width="2000.000000pt" height="2000.000000pt" viewBox="0 0 2000.000000 2000.000000"
 preserveAspectRatio="xMidYMid meet">
<metadata>
Created by potrace 1.15, written by Peter Selinger 2001-2017
</metadata>
<g transform="translate(0.000000,2000.000000) scale(0.100000,-0.100000)"
fill="#000000" stroke="none">
<path d="M9792 19423 c-36 -7 -85 -64 -106 -123 -105 -305 -272 -655 -414
-870 -100 -152 -161 -229 -301 -380 -113 -121 -123 -137 -123 -195 0 -119 94
-178 247 -155 123 18 296 65 385 103 l80 35 2 -1582 c3 -1529 4 -1582 22
-1609 10 -15 33 -38 50 -50 29 -21 40 -22 226 -22 186 0 197 1 226 22 17 12
40 35 50 50 18 27 19 80 22 1604 l2 1577 80 -35 c129 -55 298 -96 411 -97 90
-1 98 1 132 27 20 15 44 42 53 59 19 36 21 107 4 140 -7 12 -67 79 -134 148
-67 69 -142 152 -168 185 -176 232 -335 541 -489 952 -28 76 -60 150 -70 164
-34 49 -104 68 -187 52z m73 -180 c17 -69 172 -443 243 -588 153 -309 272
-482 482 -699 l105 -108 -70 7 c-152 16 -303 68 -495 173 l-125 68 -3 -1683
-2 -1683 -140 0 -140 0 0 1685 c0 927 -1 1685 -2 1685 -2 0 -73 -35 -158 -78
-170 -86 -305 -133 -448 -158 -52 -8 -95 -14 -97 -12 -1 2 44 55 102 118 204
223 357 449 493 725 74 150 193 437 221 533 14 49 24 53 34 15z"/>
<path d="M8034 14481 c-118 -31 -167 -52 -255 -112 -87 -59 -161 -131 -216
-211 -73 -105 -92 -148 -124 -276 l-29 -114 0 -3538 0 -3538 29 -114 c32 -128
51 -171 124 -276 55 -80 129 -152 216 -211 89 -61 137 -81 259 -112 l114 -29
1698 0 1698 0 114 29 c122 31 170 51 259 112 87 59 161 131 216 211 73 105 92
148 124 276 l29 114 0 3538 0 3538 -29 114 c-32 128 -51 171 -124 276 -55 80
-129 152 -216 211 -89 61 -137 81 -259 112 l-114 29 -1702 0 -1701 -1 -111
-28z m3631 -164 c207 -73 356 -221 429 -426 l31 -86 0 -3575 0 -3575 -28 -80
c-73 -207 -221 -356 -426 -429 l-86 -31 -1735 0 -1735 0 -86 31 c-205 73 -353
222 -426 429 l-28 80 0 3575 0 3575 28 80 c83 234 265 398 502 450 49 11 379
13 1770 12 l1710 -2 80 -28z"/>
<path d="M2730 11158 c-19 -5 -78 -45 -130 -87 -241 -196 -391 -296 -986 -654
-535 -321 -833 -510 -884 -559 -95 -91 -49 -255 76 -274 30 -4 185 5 408 25
568 49 652 54 926 48 370 -8 520 -37 721 -138 99 -49 141 -76 241 -152 66 -50
84 -59 131 -64 65 -7 116 14 150 61 17 24 22 45 22 96 0 59 -5 74 -49 153 -85
157 -167 269 -271 374 l-101 102 47 10 c111 24 448 83 604 106 1014 148 1849
134 2417 -39 286 -87 557 -218 798 -384 91 -63 98 -66 155 -66 68 -1 106 21
141 77 17 28 19 55 22 218 4 214 -4 258 -52 304 -18 16 -89 60 -157 97 -374
202 -809 332 -1324 394 -189 23 -908 27 -1155 6 -452 -38 -911 -97 -1350 -173
-129 -22 -249 -43 -267 -46 l-31 -5 33 83 c19 46 44 134 56 196 27 138 19 200
-34 250 -26 25 -95 56 -117 52 -3 0 -21 -5 -40 -11z m45 -200 c-19 -155 -74
-283 -206 -480 -69 -103 -78 -120 -58 -115 55 14 532 99 759 136 418 68 757
111 1175 148 281 25 944 25 1162 0 527 -60 955 -192 1341 -415 l62 -36 0 -163
0 -163 -103 69 c-424 285 -877 441 -1477 508 -219 24 -815 24 -1099 0 -581
-51 -1240 -157 -1706 -275 l-70 -18 50 -29 c246 -140 299 -177 388 -269 67
-70 145 -182 207 -300 l53 -98 -80 59 c-212 157 -435 249 -688 283 -289 38
-580 32 -1234 -25 -222 -20 -405 -34 -407 -32 -7 7 386 253 844 529 255 153
525 319 600 370 149 99 370 263 442 327 25 22 47 40 48 41 2 0 1 -24 -3 -52z"/>
<path d="M16750 11158 c-55 -15 -97 -63 -111 -125 -11 -47 -9 -68 10 -166 12
-62 37 -150 56 -196 l33 -83 -31 5 c-18 3 -138 24 -267 46 -481 83 -963 143
-1420 177 -287 21 -879 15 -1095 -11 -384 -45 -765 -143 -1070 -274 -152 -66
-358 -177 -401 -216 -48 -46 -56 -90 -52 -304 3 -163 5 -190 22 -218 35 -56
73 -78 141 -77 57 0 64 3 155 66 241 166 512 297 798 384 568 173 1403 187
2417 39 157 -23 493 -82 605 -106 l48 -10 -88 -85 c-97 -94 -183 -209 -267
-356 -90 -159 -97 -234 -27 -303 69 -69 150 -62 264 24 100 75 141 101 239
150 201 101 351 130 721 138 274 6 358 1 926 -48 223 -20 378 -29 408 -25 125
19 171 183 76 274 -51 49 -346 236 -885 560 -598 360 -744 456 -985 653 -80
65 -150 103 -180 98 -3 0 -21 -5 -40 -11z m300 -355 c176 -130 363 -249 832
-531 462 -278 851 -522 844 -529 -2 -2 -185 12 -407 32 -654 57 -945 63 -1234
25 -253 -34 -476 -126 -688 -283 l-80 -59 53 98 c62 118 140 230 207 300 89
92 142 129 388 269 l50 29 -70 18 c-121 30 -433 96 -630 132 -542 99 -1036
152 -1525 163 -904 19 -1549 -141 -2127 -529 l-103 -68 0 163 0 163 63 36
c385 223 813 355 1340 415 218 25 881 25 1162 0 439 -39 817 -88 1270 -163
247 -42 606 -107 664 -121 20 -5 11 12 -58 115 -132 198 -187 324 -206 481
l-7 54 83 -70 c46 -39 127 -102 179 -140z"/>
<path d="M9677 5833 c-42 -7 -103 -72 -110 -119 -4 -21 -7 -738 -7 -1592 l0
-1552 -37 19 c-122 61 -445 139 -527 127 -88 -13 -148 -79 -148 -160 0 -59 10
-74 123 -196 140 -151 201 -228 301 -380 142 -215 309 -565 414 -870 26 -73
70 -117 129 -125 100 -15 168 28 200 127 44 131 164 418 245 583 141 285 251
445 446 645 67 69 127 136 134 148 17 33 15 104 -4 140 -9 17 -33 44 -53 59
-34 26 -42 28 -132 27 -113 -1 -282 -42 -411 -97 l-80 -35 -2 1577 -3 1576
-22 31 c-46 65 -60 69 -253 70 -96 1 -188 0 -203 -3z m323 -1839 l0 -1685 63
36 c194 112 350 175 495 200 151 26 150 29 31 -92 -208 -214 -328 -388 -481
-698 -71 -145 -226 -519 -243 -588 -10 -38 -20 -34 -34 16 -28 95 -147 382
-221 532 -136 276 -289 502 -493 725 -58 63 -103 116 -102 118 2 2 45 -4 97
-12 143 -25 278 -72 448 -158 85 -43 156 -78 158 -78 1 0 2 758 2 1685 l0
1685 140 0 140 0 0 -1686z"/>
</g>
</svg>
