<?xml version="1.0" standalone="no"?>
<!DOCTYPE svg PUBLIC "-//W3C//DTD SVG 20010904//EN"
 "http://www.w3.org/TR/2001/REC-SVG-20010904/DTD/svg10.dtd">
<svg version="1.0" xmlns="http://www.w3.org/2000/svg"
 width="1511.000000pt" height="1534.000000pt" viewBox="0 0 1511.000000 1534.000000"
 preserveAspectRatio="xMidYMid meet">
<metadata>
Created by potrace 1.15, written by Peter Selinger 2001-2017
</metadata>
<g transform="translate(0.000000,1534.000000) scale(0.100000,-0.100000)"
fill="#000000" stroke="none">
<path d="M7480 13665 c-25 -8 -59 -29 -76 -47 -17 -18 -816 -1271 -1776 -2783
-1232 -1943 -1748 -2764 -1756 -2797 -15 -57 4 -127 45 -170 56 -58 49 -58
940 -58 l813 0 2 -2972 3 -2973 23 -37 c13 -20 40 -47 60 -60 l37 -23 1740 0
1740 0 37 23 c20 13 47 40 60 60 l23 37 3 2972 2 2973 813 0 c891 0 884 0 940
58 41 43 60 113 45 170 -8 33 -524 854 -1756 2797 -960 1512 -1759 2765 -1776
2783 -18 20 -50 38 -80 47 -58 17 -49 17 -106 0z m1829 -2960 l1719 -2710
-904 -3 -904 -2 0 -3035 0 -3035 -1685 0 -1685 0 0 3035 0 3035 -904 2 -905 3
1747 2752 1746 2752 28 -42 c15 -23 801 -1261 1747 -2752z"/>
</g>
</svg>
