<?xml version="1.0" standalone="no"?>
<!DOCTYPE svg PUBLIC "-//W3C//DTD SVG 20010904//EN"
 "http://www.w3.org/TR/2001/REC-SVG-20010904/DTD/svg10.dtd">
<svg version="1.0" xmlns="http://www.w3.org/2000/svg"
 width="1511.000000pt" height="1534.000000pt" viewBox="0 0 1511.000000 1534.000000"
 preserveAspectRatio="xMidYMid meet">
<metadata>
Created by potrace 1.15, written by Peter Selinger 2001-2017
</metadata>
<g transform="translate(0.000000,1534.000000) scale(0.100000,-0.100000)"
fill="#000000" stroke="none">
<path d="M5793 13669 c-44 -13 -100 -70 -112 -116 -8 -26 -11 -965 -11 -2990
l0 -2953 -813 0 c-891 0 -884 0 -940 -58 -41 -43 -60 -113 -45 -170 8 -33 524
-854 1756 -2797 960 -1512 1759 -2765 1776 -2783 19 -20 50 -38 81 -47 45 -13
57 -13 101 0 30 9 62 27 80 47 17 18 816 1271 1776 2783 1229 1938 1748 2764
1756 2797 15 58 -5 132 -46 171 -60 57 -52 57 -939 57 l-813 0 -2 2973 -3
2972 -23 37 c-13 20 -40 47 -60 60 l-37 23 -1725 2 c-1055 1 -1738 -2 -1757
-8z m3427 -3204 l0 -3035 904 -2 904 -3 -1719 -2710 c-946 -1490 -1732 -2729
-1747 -2752 l-28 -42 -1746 2752 -1747 2752 905 3 904 2 0 3035 0 3035 1685 0
1685 0 0 -3035z"/>
</g>
</svg>
