<?xml version="1.0" standalone="no"?>
<!DOCTYPE svg PUBLIC "-//W3C//DTD SVG 20010904//EN"
 "http://www.w3.org/TR/2001/REC-SVG-20010904/DTD/svg10.dtd">
<svg version="1.0" xmlns="http://www.w3.org/2000/svg"
 width="2000.000000pt" height="2000.000000pt" viewBox="0 0 2000.000000 2000.000000"
 preserveAspectRatio="xMidYMid meet">
<metadata>
Created by potrace 1.15, written by Peter Selinger 2001-2017
</metadata>
<g transform="translate(0.000000,2000.000000) scale(0.100000,-0.100000)"
fill="#000000" stroke="none">
<path d="M7379 17339 c-86 -12 -255 -57 -339 -90 -226 -87 -457 -271 -608
-485 -113 -158 -180 -319 -229 -547 -17 -78 -18 -343 -18 -5382 0 -5039 1
-5304 18 -5382 65 -304 177 -520 372 -718 189 -193 384 -303 668 -377 l122
-32 840 -4 840 -3 22 -27 c12 -15 22 -31 23 -35 0 -5 11 -23 25 -41 14 -18 25
-38 25 -45 0 -7 17 -38 37 -69 20 -31 46 -73 56 -92 11 -19 25 -42 33 -50 7
-9 20 -31 29 -50 17 -39 30 -61 62 -107 13 -17 23 -35 23 -38 0 -4 10 -21 23
-38 12 -17 27 -39 32 -48 6 -10 43 -65 83 -124 39 -59 72 -109 72 -112 0 -5
108 -147 139 -182 11 -13 21 -27 21 -30 0 -3 10 -17 23 -31 12 -14 39 -47 59
-73 79 -104 216 -255 333 -367 100 -95 124 -117 208 -182 43 -35 93 -75 111
-90 17 -15 35 -28 39 -28 4 0 31 -17 60 -37 63 -45 87 -61 107 -70 8 -3 28
-15 44 -26 37 -26 197 -107 211 -107 6 0 26 -11 46 -24 20 -14 52 -28 72 -31
21 -4 40 -11 43 -16 3 -5 13 -9 23 -9 9 0 40 -11 67 -25 28 -14 70 -29 95 -34
87 -19 146 -33 244 -57 146 -35 315 -48 625 -48 307 0 466 13 585 49 78 23
130 36 230 56 27 6 61 19 75 29 15 10 39 22 56 26 16 4 34 10 39 14 6 4 26 11
45 15 19 4 46 15 60 25 14 9 73 40 131 69 58 28 114 60 125 69 10 10 40 28 65
40 25 12 54 30 65 40 10 10 26 21 34 24 8 4 74 53 145 110 136 109 315 280
400 383 28 33 52 62 56 65 3 3 18 23 35 45 16 22 35 46 42 54 7 8 21 26 30 40
9 14 30 44 47 66 16 22 39 58 50 80 11 22 30 55 44 73 26 36 71 120 71 134 0
5 18 37 39 73 22 35 42 79 46 97 8 40 14 58 48 128 26 54 35 84 63 210 8 36
22 79 30 95 9 17 23 89 32 160 13 111 16 306 19 1335 3 1180 3 1207 -17 1293
-12 54 -30 101 -45 121 -14 18 -25 36 -25 41 0 8 -54 78 -85 110 -73 76 -217
171 -272 180 -21 4 -60 13 -87 21 -64 18 -198 18 -262 0 -27 -8 -66 -17 -87
-21 -62 -10 -206 -110 -289 -200 l-38 -40 -3 4535 c-2 4319 -3 4538 -20 4609
-77 315 -180 511 -372 706 -189 193 -383 303 -668 378 l-122 32 -2520 1
c-1386 1 -2545 -2 -2576 -7z m5146 -172 c259 -64 443 -165 615 -337 144 -144
240 -300 301 -489 63 -197 59 123 58 -4536 -1 -3434 -3 -4241 -13 -4204 -40
142 -252 346 -419 403 -66 22 -225 31 -332 17 -78 -9 -100 -17 -170 -57 -152
-89 -256 -197 -328 -344 l-42 -85 -3 -257 c-2 -152 -7 -258 -13 -258 -5 0 -9
159 -9 403 0 451 -2 469 -66 581 -70 121 -174 226 -284 288 -119 66 -339 98
-442 64 -24 -8 -60 -17 -81 -21 -68 -11 -162 -72 -260 -168 -110 -108 -156
-191 -184 -326 -18 -84 -18 -64 -23 1134 l-5 1220 -32 82 c-18 45 -47 106 -66
135 -43 68 -185 213 -217 223 -14 4 -35 16 -47 27 -27 25 -152 56 -264 64 -68
5 -107 2 -195 -16 -128 -26 -191 -60 -296 -159 -120 -112 -171 -200 -210 -359
-9 -34 -13 -515 -18 -1787 l-5 -1740 -145 140 c-193 186 -424 387 -500 436
-14 9 -64 47 -112 85 -91 73 -142 107 -243 164 -35 19 -69 40 -76 46 -34 27
-188 91 -297 124 -63 19 -91 21 -215 18 -115 -2 -148 -6 -170 -20 -14 -10 -32
-18 -40 -18 -30 0 -139 -93 -176 -150 -49 -76 -77 -206 -67 -312 9 -100 34
-216 57 -259 19 -38 43 -100 60 -155 5 -18 16 -37 24 -44 8 -6 31 -46 52 -88
43 -88 106 -198 146 -258 15 -23 42 -69 60 -102 38 -73 223 -369 248 -397 9
-11 30 -41 46 -67 15 -26 60 -98 100 -160 39 -62 82 -132 95 -155 12 -23 44
-72 69 -110 25 -37 67 -102 93 -143 27 -41 66 -101 87 -132 22 -31 39 -60 39
-64 0 -10 91 -156 112 -180 10 -11 18 -25 18 -31 0 -6 11 -25 26 -42 14 -16
41 -61 60 -98 20 -37 43 -77 53 -88 10 -11 32 -42 50 -70 l32 -50 -741 -3
c-816 -2 -851 0 -1031 57 -189 61 -345 157 -489 301 -144 144 -240 300 -301
489 -64 199 -59 -223 -56 5553 3 4954 4 5267 20 5333 63 253 163 439 327 606
195 198 431 318 705 358 34 5 1163 8 2560 7 2330 -2 2505 -3 2570 -19z m-2280
-6612 c181 -43 316 -160 388 -337 l22 -53 5 -1825 5 -1825 159 -3 c105 -2 163
1 172 9 11 9 14 131 16 652 4 632 4 643 25 695 26 64 43 91 95 154 46 55 153
129 218 151 118 39 271 29 374 -25 73 -39 192 -155 224 -218 58 -118 56 -99
62 -605 l5 -470 159 -3 c110 -2 163 1 172 9 12 10 14 62 14 288 -1 152 2 292
6 311 13 69 72 179 125 235 171 181 411 216 620 92 60 -35 133 -110 175 -178
68 -112 67 -105 73 -624 l6 -470 165 0 165 0 6 112 c9 140 21 198 60 279 36
74 122 168 192 208 204 119 442 87 605 -83 73 -75 112 -146 136 -246 16 -64
17 -168 13 -1210 -2 -767 -7 -1155 -14 -1185 -6 -25 -17 -79 -23 -120 -21
-133 -66 -301 -109 -415 -17 -44 -31 -83 -31 -86 0 -4 -29 -69 -66 -144 -133
-278 -290 -500 -514 -725 -215 -215 -436 -378 -680 -500 -82 -41 -121 -58
-225 -100 -124 -50 -320 -106 -420 -120 -33 -5 -87 -13 -120 -19 -139 -23
-329 -32 -475 -22 -268 19 -479 52 -625 97 -146 45 -180 56 -200 64 -11 4 -38
15 -60 23 -22 8 -70 29 -107 46 -36 17 -68 31 -71 31 -2 0 -43 23 -91 50 -48
28 -89 50 -91 50 -8 0 -196 129 -259 178 -201 154 -411 368 -592 601 -27 35
-69 89 -92 120 -63 81 -267 387 -344 516 -36 61 -100 168 -143 239 -42 71 -86
145 -97 165 -41 73 -207 344 -383 626 -177 283 -259 412 -480 760 -59 94 -149
235 -200 315 -50 80 -116 183 -147 230 -30 47 -66 105 -80 130 -14 25 -60 106
-103 180 -108 184 -204 383 -226 465 -37 140 -40 164 -36 232 4 52 13 86 32
120 60 110 196 159 356 128 109 -20 155 -37 279 -99 313 -157 709 -483 1238
-1018 69 -71 132 -128 139 -128 11 0 13 346 13 1943 l0 1942 25 70 c56 156
169 267 323 319 115 39 148 42 237 21z"/>
<path d="M9921 12409 c-481 -51 -929 -266 -1276 -614 -244 -243 -410 -512
-519 -839 -30 -89 -86 -327 -86 -365 0 -7 27 -11 79 -11 l80 0 11 58 c86 435
273 782 583 1078 757 724 1947 724 2704 0 310 -296 497 -643 583 -1078 l11
-58 80 0 c52 0 79 4 79 11 0 38 -56 276 -86 365 -109 327 -275 596 -519 839
-457 457 -1084 680 -1724 614z"/>
<path d="M9965 11699 c-489 -67 -907 -377 -1109 -822 -34 -73 -77 -199 -91
-265 l-7 -33 82 3 81 3 35 104 c144 430 494 740 944 837 62 13 128 18 245 18
117 0 183 -5 245 -18 310 -67 569 -230 754 -476 88 -117 145 -225 190 -361
l35 -104 81 -3 82 -3 -7 33 c-30 139 -117 338 -204 468 -207 308 -527 524
-886 600 -116 24 -361 34 -470 19z"/>
</g>
</svg>
